<svg width="291" height="35" viewBox="0 0 291 35" fill="none" xmlns="http://www.w3.org/2000/svg">
<path d="M7.27756 24.984L0.645031 18.1689L7.27756 11.3538H12.6323L5.99973 18.1689L12.6323 24.984H7.27756ZM33.5129 11.3538H38.898L45.5306 18.1689L38.898 24.984H33.5129L40.1759 18.1689L33.5129 11.3538Z" fill="#603BAF"/>
<path d="M29.5173 0.188063L21.3027 34.5068H17.1346L25.3492 0.188063H29.5173Z" fill="white"/>
<path d="M56.3819 18.3514C56.3819 16.2623 56.8484 14.3963 57.7814 12.7534C58.7347 11.0902 60.0227 9.80218 61.6453 8.88945C63.2882 7.95643 65.1238 7.48993 67.1521 7.48993C69.5252 7.48993 71.6042 8.09842 73.3891 9.31539C75.174 10.5324 76.4214 12.2159 77.1313 14.3658H72.233C71.7462 13.3517 71.0566 12.5911 70.1641 12.084C69.292 11.5769 68.2778 11.3234 67.1217 11.3234C65.8844 11.3234 64.779 11.6175 63.8054 12.2057C62.8521 12.7736 62.1017 13.585 61.554 14.6397C61.0267 15.6944 60.763 16.9316 60.763 18.3514C60.763 19.751 61.0267 20.9882 61.554 22.0632C62.1017 23.1179 62.8521 23.9394 63.8054 24.5276C64.779 25.0955 65.8844 25.3795 67.1217 25.3795C68.2778 25.3795 69.292 25.126 70.1641 24.6189C71.0566 24.0915 71.7462 23.3208 72.233 22.3066H77.1313C76.4214 24.4769 75.174 26.1705 73.3891 27.3875C71.6245 28.5842 69.5455 29.1825 67.1521 29.1825C65.1238 29.1825 63.2882 28.7262 61.6453 27.8134C60.0227 26.8804 58.7347 25.5925 57.7814 23.9495C56.8484 22.3066 56.3819 20.4406 56.3819 18.3514ZM88.2538 29.2738C86.6312 29.2738 85.1708 28.9189 83.8727 28.209C82.5746 27.4788 81.5503 26.4545 80.7999 25.1361C80.0697 23.8177 79.7046 22.2965 79.7046 20.5724C79.7046 18.8484 80.0798 17.3272 80.8303 16.0088C81.601 14.6904 82.6456 13.6762 83.964 12.9663C85.2824 12.2361 86.7529 11.871 88.3755 11.871C89.9982 11.871 91.4687 12.2361 92.7871 12.9663C94.1055 13.6762 95.1399 14.6904 95.8904 16.0088C96.6611 17.3272 97.0465 18.8484 97.0465 20.5724C97.0465 22.2965 96.651 23.8177 95.86 25.1361C95.0892 26.4545 94.0345 27.4788 92.6958 28.209C91.3774 28.9189 89.8968 29.2738 88.2538 29.2738ZM88.2538 25.562C89.0246 25.562 89.7446 25.3795 90.414 25.0144C91.1036 24.629 91.6512 24.0611 92.0569 23.3106C92.4626 22.5602 92.6654 21.6474 92.6654 20.5724C92.6654 18.9701 92.2394 17.743 91.3876 16.8911C90.556 16.0189 89.5317 15.5828 88.3147 15.5828C87.0977 15.5828 86.0734 16.0189 85.2418 16.8911C84.4305 17.743 84.0249 18.9701 84.0249 20.5724C84.0249 22.1748 84.4204 23.412 85.2114 24.2842C86.0227 25.1361 87.0369 25.562 88.2538 25.562ZM99.0757 20.5116C99.0757 18.8078 99.4103 17.2967 100.08 15.9783C100.769 14.66 101.702 13.6458 102.879 12.9359C104.055 12.226 105.363 11.871 106.803 11.871C107.899 11.871 108.943 12.1144 109.937 12.6012C110.931 13.0677 111.722 13.6965 112.31 14.4875V6.48592H116.631V29H112.31V26.5052C111.783 27.3368 111.043 28.0061 110.089 28.5132C109.136 29.0203 108.031 29.2738 106.773 29.2738C105.353 29.2738 104.055 28.9087 102.879 28.1785C101.702 27.4484 100.769 26.4241 100.08 25.1057C99.4103 23.767 99.0757 22.2356 99.0757 20.5116ZM112.341 20.5724C112.341 19.538 112.138 18.6557 111.732 17.9255C111.327 17.175 110.779 16.6071 110.089 16.2217C109.4 15.8161 108.659 15.6132 107.868 15.6132C107.077 15.6132 106.347 15.8059 105.678 16.1913C105.008 16.5767 104.461 17.1446 104.035 17.8951C103.629 18.6253 103.426 19.4974 103.426 20.5116C103.426 21.5257 103.629 22.4182 104.035 23.1889C104.461 23.9394 105.008 24.5175 105.678 24.9231C106.367 25.3288 107.098 25.5316 107.868 25.5316C108.659 25.5316 109.4 25.3389 110.089 24.9536C110.779 24.5479 111.327 23.98 111.732 23.2498C112.138 22.4993 112.341 21.6069 112.341 20.5724ZM136.459 20.2073C136.459 20.8158 136.419 21.3635 136.338 21.8503H124.016C124.117 23.0672 124.543 24.0205 125.293 24.7102C126.044 25.3998 126.967 25.7446 128.062 25.7446C129.644 25.7446 130.77 25.0651 131.439 23.7061H136.033C135.546 25.3288 134.613 26.6675 133.234 27.7222C131.855 28.7566 130.161 29.2738 128.153 29.2738C126.531 29.2738 125.07 28.9189 123.772 28.209C122.494 27.4788 121.49 26.4545 120.76 25.1361C120.05 23.8177 119.695 22.2965 119.695 20.5724C119.695 18.8281 120.05 17.2967 120.76 15.9783C121.47 14.66 122.464 13.6458 123.742 12.9359C125.02 12.226 126.49 11.871 128.153 11.871C129.756 11.871 131.186 12.2159 132.443 12.9055C133.721 13.5951 134.705 14.5788 135.394 15.8566C136.104 17.1142 136.459 18.5644 136.459 20.2073ZM132.048 18.9904C132.027 17.8951 131.632 17.0229 130.861 16.3739C130.09 15.7045 129.147 15.3699 128.032 15.3699C126.977 15.3699 126.084 15.6944 125.354 16.3434C124.644 16.9722 124.208 17.8545 124.046 18.9904H132.048ZM167.954 7.76375L162.021 29H157.001L153.016 13.8791L148.848 29L143.858 29.0304L138.138 7.76375H142.702L146.444 24.2538L150.764 7.76375H155.511L159.587 24.1625L163.36 7.76375H167.954ZM172.896 10.1369C172.145 10.1369 171.516 9.9036 171.009 9.43709C170.522 8.9503 170.279 8.35195 170.279 7.64205C170.279 6.93214 170.522 6.34394 171.009 5.87743C171.516 5.39064 172.145 5.14725 172.896 5.14725C173.646 5.14725 174.265 5.39064 174.751 5.87743C175.259 6.34394 175.512 6.93214 175.512 7.64205C175.512 8.35195 175.259 8.9503 174.751 9.43709C174.265 9.9036 173.646 10.1369 172.896 10.1369ZM174.995 12.1449V29H170.735V12.1449H174.995ZM184.162 15.6437V23.7974C184.162 24.3653 184.294 24.7811 184.558 25.0448C184.842 25.2882 185.308 25.4099 185.957 25.4099H187.935V29H185.258C181.668 29 179.873 27.2557 179.873 23.767V15.6437H177.864V12.1449H179.873V7.97672H184.162V12.1449H187.935V15.6437H184.162ZM200.491 11.9015C201.769 11.9015 202.905 12.1854 203.899 12.7534C204.892 13.301 205.663 14.1225 206.211 15.2177C206.779 16.2927 207.063 17.5908 207.063 19.1121V29H202.803V19.6901C202.803 18.3514 202.469 17.3272 201.799 16.6173C201.13 15.8871 200.217 15.522 199.061 15.522C197.885 15.522 196.952 15.8871 196.262 16.6173C195.593 17.3272 195.258 18.3514 195.258 19.6901V29H190.999V6.48592H195.258V14.2442C195.806 13.514 196.536 12.946 197.449 12.5404C198.361 12.1144 199.375 11.9015 200.491 11.9015ZM224.226 7.76375V11.2017H215.373V16.6477H222.157V20.0248H215.373V29H211.113V7.76375H224.226ZM226.151 20.5116C226.151 18.8078 226.486 17.2967 227.155 15.9783C227.845 14.66 228.768 13.6458 229.924 12.9359C231.1 12.226 232.408 11.871 233.849 11.871C235.106 11.871 236.201 12.1246 237.134 12.6317C238.088 13.1387 238.848 13.7776 239.416 14.5484V12.1449H243.706V29H239.416V26.5356C238.869 27.3267 238.108 27.9859 237.134 28.5132C236.181 29.0203 235.076 29.2738 233.818 29.2738C232.398 29.2738 231.1 28.9087 229.924 28.1785C228.768 27.4484 227.845 26.4241 227.155 25.1057C226.486 23.767 226.151 22.2356 226.151 20.5116ZM239.416 20.5724C239.416 19.538 239.213 18.6557 238.808 17.9255C238.402 17.175 237.854 16.6071 237.165 16.2217C236.475 15.8161 235.735 15.6132 234.944 15.6132C234.153 15.6132 233.423 15.8059 232.753 16.1913C232.084 16.5767 231.536 17.1446 231.11 17.8951C230.705 18.6253 230.502 19.4974 230.502 20.5116C230.502 21.5257 230.705 22.4182 231.11 23.1889C231.536 23.9394 232.084 24.5175 232.753 24.9231C233.443 25.3288 234.173 25.5316 234.944 25.5316C235.735 25.5316 236.475 25.3389 237.165 24.9536C237.854 24.5479 238.402 23.98 238.808 23.2498C239.213 22.4993 239.416 21.6069 239.416 20.5724ZM252.126 6.48592V29H247.866V6.48592H252.126ZM255.239 20.5724C255.239 18.8281 255.594 17.3069 256.303 16.0088C257.013 14.6904 257.997 13.6762 259.255 12.9663C260.512 12.2361 261.952 11.871 263.575 11.871C265.664 11.871 267.388 12.3984 268.747 13.4531C270.126 14.4875 271.049 15.9479 271.516 17.8342H266.922C266.678 17.104 266.262 16.5361 265.674 16.1305C265.106 15.7045 264.396 15.4916 263.544 15.4916C262.327 15.4916 261.364 15.9378 260.654 16.8302C259.944 17.7024 259.589 18.9498 259.589 20.5724C259.589 22.1748 259.944 23.4222 260.654 24.3146C261.364 25.1868 262.327 25.6229 263.544 25.6229C265.268 25.6229 266.394 24.8521 266.922 23.3106H271.516C271.049 25.1361 270.126 26.5863 268.747 27.6613C267.368 28.7363 265.644 29.2738 263.575 29.2738C261.952 29.2738 260.512 28.9189 259.255 28.209C257.997 27.4788 257.013 26.4646 256.303 25.1665C255.594 23.8481 255.239 22.3168 255.239 20.5724ZM282.12 29.2738C280.498 29.2738 279.037 28.9189 277.739 28.209C276.441 27.4788 275.417 26.4545 274.666 25.1361C273.936 23.8177 273.571 22.2965 273.571 20.5724C273.571 18.8484 273.946 17.3272 274.697 16.0088C275.468 14.6904 276.512 13.6762 277.831 12.9663C279.149 12.2361 280.62 11.871 282.242 11.871C283.865 11.871 285.335 12.2361 286.654 12.9663C287.972 13.6762 289.007 14.6904 289.757 16.0088C290.528 17.3272 290.913 18.8484 290.913 20.5724C290.913 22.2965 290.518 23.8177 289.727 25.1361C288.956 26.4545 287.901 27.4788 286.562 28.209C285.244 28.9189 283.763 29.2738 282.12 29.2738ZM282.12 25.562C282.891 25.562 283.611 25.3795 284.281 25.0144C284.97 24.629 285.518 24.0611 285.923 23.3106C286.329 22.5602 286.532 21.6474 286.532 20.5724C286.532 18.9701 286.106 17.743 285.254 16.8911C284.423 16.0189 283.398 15.5828 282.181 15.5828C280.964 15.5828 279.94 16.0189 279.108 16.8911C278.297 17.743 277.891 18.9701 277.891 20.5724C277.891 22.1748 278.287 23.412 279.078 24.2842C279.889 25.1361 280.903 25.562 282.12 25.562Z" fill="#7E5EFF"/>
</svg>
