<svg width="50" height="50" viewBox="0 0 70 70" fill="none" xmlns="http://www.w3.org/2000/svg">
<rect width="70" height="70" rx="9" fill="#2454CF" fill-opacity="0.15"/>
<path d="M17.9596 53.9017L14.1695 11.375H55.8305L52.0353 53.8949L34.9747 58.625L17.9596 53.9017Z" fill="#1572B6"/>
<path d="M35 55.0103L48.7869 51.1882L52.0302 14.8529H35V55.0103Z" fill="#33A9DC"/>
<path d="M35 30.2598H41.9019L42.3777 24.9188H35V19.7028H48.0781L47.9533 21.1017L46.6724 35.4758H35V30.2598Z" fill="white"/>
<path d="M35.0321 43.8053L35.0085 43.8121L29.2001 42.2427L28.8288 38.083H23.5925L24.3232 46.2724L35.0068 49.2391L35.0321 49.2323V43.8053Z" fill="#EBEBEB"/>
<path d="M41.4581 35.2548L40.8303 42.2393L35.0135 43.8087V49.2357L45.7055 46.2725L45.7848 45.3916L46.691 35.2548H41.4581Z" fill="white"/>
<path d="M35.0186 19.7028V24.9188H22.4197L22.3151 23.746L22.0771 21.1017L21.9523 19.7028H35.0186ZM35 30.2598V35.4758H29.2642L29.1596 34.303L28.9233 31.6587L28.7985 30.2598H35Z" fill="#EBEBEB"/>
</svg>
