<svg width="50" height="50" viewBox="0 0 70 70" fill="none" xmlns="http://www.w3.org/2000/svg">
<path d="M0 9C0 4.02944 4.02944 0 9 0H61C65.9706 0 70 4.02944 70 9V61C70 65.9706 65.9706 70 61 70H9C4.02944 70 0 65.9706 0 61V9Z" fill="white" fill-opacity="0.3"/>
<path d="M53.9323 46.3869C52.446 46.765 51.5269 46.4032 50.7023 45.1647C48.851 42.391 46.8074 39.7444 44.8355 37.049C44.5813 36.7002 44.3173 36.358 43.9881 35.9245C41.6544 39.073 39.324 42.0716 37.137 45.1908C36.3548 46.3055 35.5334 46.7911 34.0732 46.3967L42.8473 34.6208L34.6795 23.9856C36.0842 23.7119 37.0555 23.852 37.916 25.1101C39.8162 27.887 41.9119 30.5303 44.0011 33.3268C46.1034 30.5401 48.1731 27.8936 50.1287 25.1427C50.9142 24.028 51.7583 23.6043 53.1696 24.015C52.1006 25.4328 51.0543 26.8278 50.0015 28.213C48.5805 30.0806 47.1855 31.971 45.7123 33.7994C45.1875 34.4513 45.2723 34.875 45.7416 35.491C48.4664 39.073 51.1586 42.6909 53.9323 46.3869ZM13.08 34.4252C13.3146 33.2486 13.4711 32.0492 13.797 30.8954C15.7526 23.9107 23.7705 21.0066 29.2788 25.335C32.5055 27.874 33.3073 31.4527 33.1476 35.4878H14.9606C14.6868 42.7267 19.8985 47.0975 26.541 44.8681C28.8714 44.0859 30.2435 42.2606 30.9313 39.9791C31.28 38.8351 31.8569 38.6558 32.9325 38.9818C32.3817 41.8369 31.1333 44.2228 28.5259 45.7155C24.6147 47.9514 19.0315 47.2278 16.0948 44.1217C14.3609 42.2965 13.6243 40.0247 13.2983 37.5705C13.2495 37.1794 13.1484 36.7948 13.0702 36.4069C13.0767 35.7463 13.08 35.0858 13.08 34.4252ZM14.9932 33.9396H31.4299C31.3224 28.7051 28.0631 24.9862 23.6076 24.9537C18.7186 24.9145 15.205 28.5454 14.9932 33.9396Z" fill="white"/>
</svg>
