<svg width="50" height="50" viewBox="0 0 70 70" fill="none" xmlns="http://www.w3.org/2000/svg">
<path d="M0 9C0 4.02944 4.02944 0 9 0H61C65.9706 0 70 4.02944 70 9V61C70 65.9706 65.9706 70 61 70H9C4.02944 70 0 65.9706 0 61V9Z" fill="white" fill-opacity="0.15"/>
<path d="M35.5 14.9166C32.9282 14.9166 30.3817 15.4232 28.0057 16.4073C25.6298 17.3915 23.4709 18.834 21.6525 20.6525C17.9799 24.325 15.9166 29.3061 15.9166 34.5C15.9166 43.1558 21.537 50.4995 29.3116 53.1041C30.2908 53.2608 30.6041 52.6537 30.6041 52.125V48.8154C25.1795 49.9904 24.0241 46.1912 24.0241 46.1912C23.1233 43.9195 21.8504 43.3125 21.8504 43.3125C20.0683 42.0983 21.9875 42.1375 21.9875 42.1375C23.9458 42.2745 24.9837 44.1545 24.9837 44.1545C26.6875 47.1312 29.5662 46.25 30.6825 45.78C30.8587 44.507 31.3679 43.6454 31.9162 43.1558C27.5687 42.6662 23.0058 40.982 23.0058 33.5208C23.0058 31.347 23.75 29.6041 25.0229 28.2137C24.827 27.7241 24.1416 25.6875 25.2187 23.0437C25.2187 23.0437 26.8637 22.515 30.6041 25.0412C32.1512 24.6104 33.8354 24.395 35.5 24.395C37.1645 24.395 38.8487 24.6104 40.3958 25.0412C44.1362 22.515 45.7812 23.0437 45.7812 23.0437C46.8583 25.6875 46.1729 27.7241 45.977 28.2137C47.25 29.6041 47.9941 31.347 47.9941 33.5208C47.9941 41.0016 43.4116 42.6466 39.0445 43.1362C39.7495 43.7433 40.3958 44.9379 40.3958 46.7591V52.125C40.3958 52.6537 40.7091 53.2804 41.7079 53.1041C49.4825 50.48 55.0833 43.1558 55.0833 34.5C55.0833 31.9282 54.5768 29.3817 53.5926 27.0057C52.6084 24.6298 51.1659 22.4709 49.3475 20.6525C47.529 18.834 45.3701 17.3915 42.9942 16.4073C40.6182 15.4232 38.0717 14.9166 35.5 14.9166Z" fill="white"/>
</svg>
