<svg width="50" height="50" viewBox="0 0 70 70" fill="none" xmlns="http://www.w3.org/2000/svg">
<rect width="70" height="70" rx="9" fill="#CF4D24" fill-opacity="0.15"/>
<path d="M18.5908 54.4518L14.9394 9.5625H55.0606L51.4044 54.4447L34.9756 59.4375L18.5908 54.4518Z" fill="#E44F26"/>
<path d="M35 55.6221L48.2762 51.5875L51.3995 13.2336H35V55.6221Z" fill="#F1662A"/>
<path d="M35 29.8812H28.3537L27.8955 24.2435H35V18.7377H22.4062L22.5265 20.2161L23.7599 35.387H35V29.8812ZM35 44.1793L34.9773 44.1864L29.384 42.5316L29.0265 38.1408H23.9841L24.6878 46.7835L34.9773 49.9149L35 49.9078V44.1793Z" fill="#EBEBEB"/>
<path d="M34.9821 29.8812V35.387H41.1669L40.5851 42.528L34.9821 44.1846V49.9131L45.2797 46.7835L45.3545 45.8536L46.5342 31.3596L46.6577 29.8812H34.9821ZM34.9821 18.7377V24.2435H47.1144L47.2151 23.0073L47.4442 20.2161L47.5645 18.7377H34.9821Z" fill="white"/>
</svg>
