<svg width="50" height="50" viewBox="0 0 78 78" fill="none" xmlns="http://www.w3.org/2000/svg">
<g filter="url(#filter0_d_3_40)">
<rect x="4" width="70" height="70" rx="9" fill="#C1CF24" fill-opacity="0.15"/>
<path d="M16.1875 12.125H60.8125V55.875H16.1875V12.125Z" fill="#F5DE19"/>
<path d="M46.1644 46.3047C46.5452 47.0614 47.1361 47.6974 47.8691 48.1396C48.6021 48.5819 49.4475 48.8124 50.3081 48.8047C52.0453 48.8047 53.1561 47.9531 53.1561 46.7734C53.1561 45.3672 52.015 44.8641 50.1025 44.0437L49.0538 43.6031C46.0257 42.3391 44.0176 40.7562 44.0176 37.4094C44.0176 34.3266 46.4082 31.9781 50.1583 31.9781C51.3722 31.8924 52.5851 32.1588 53.6456 32.7443C54.7061 33.3297 55.5674 34.2082 56.1221 35.2703L52.8438 37.325C52.63 36.7984 52.2582 36.348 51.7775 36.0332C51.2968 35.7185 50.7299 35.5543 50.1519 35.5625C49.8997 35.5377 49.645 35.5648 49.4041 35.6418C49.1631 35.7189 48.9412 35.8444 48.7524 36.0102C48.5637 36.176 48.4122 36.3785 48.3077 36.6049C48.2032 36.8313 48.1479 37.0765 48.1454 37.325C48.1454 38.5578 48.9247 39.0578 50.7241 39.825L51.7728 40.2656C55.3364 41.7641 57.3509 43.2906 57.3509 46.7234C57.3509 50.425 54.3849 52.4531 50.4021 52.4531C48.8505 52.5491 47.3036 52.2032 45.9478 51.4572C44.5919 50.7113 43.4849 49.5969 42.7601 48.2484L46.1644 46.3047ZM31.3505 46.6609C32.0087 47.8062 32.6079 48.775 34.0487 48.775C35.4257 48.775 36.2959 48.2469 36.2959 46.1922V32.2125H40.489V46.2469C40.489 50.5031 37.939 52.4406 34.2272 52.4406C32.9151 52.5109 31.6121 52.1904 30.4893 51.5211C29.3666 50.8517 28.4767 49.865 27.9366 48.6906L31.3505 46.6609Z" fill="black"/>
</g>
<defs>
<filter id="filter0_d_3_40" x="0" y="0" width="78" height="78" filterUnits="userSpaceOnUse" color-interpolation-filters="sRGB">
<feFlood flood-opacity="0" result="BackgroundImageFix"/>
<feColorMatrix in="SourceAlpha" type="matrix" values="0 0 0 0 0 0 0 0 0 0 0 0 0 0 0 0 0 0 127 0" result="hardAlpha"/>
<feOffset dy="4"/>
<feGaussianBlur stdDeviation="2"/>
<feComposite in2="hardAlpha" operator="out"/>
<feColorMatrix type="matrix" values="0 0 0 0 0 0 0 0 0 0 0 0 0 0 0 0 0 0 0.25 0"/>
<feBlend mode="normal" in2="BackgroundImageFix" result="effect1_dropShadow_3_40"/>
<feBlend mode="normal" in="SourceGraphic" in2="effect1_dropShadow_3_40" result="shape"/>
</filter>
</defs>
</svg>
