<svg width="50" height="50" viewBox="0 0 70 70" fill="none" xmlns="http://www.w3.org/2000/svg">
<path d="M0 9C0 4.02944 4.02944 0 9 0H61C65.9706 0 70 4.02944 70 9V61C70 65.9706 65.9706 70 61 70H9C4.02944 70 0 65.9706 0 61V9Z" fill="#539E43" fill-opacity="0.3"/>
<path d="M34.9818 56.3312C34.4025 56.3312 33.8618 56.1767 33.3597 55.9063L28.2229 52.8552C27.4505 52.4303 27.8367 52.2758 28.0684 52.1986C29.1112 51.851 29.3043 51.7738 30.3857 51.1557C30.5017 51.0785 30.6561 51.1171 30.7719 51.1943L34.7115 53.5503C34.866 53.6276 35.0591 53.6276 35.1749 53.5503L50.5853 44.6286C50.7398 44.5514 50.817 44.3969 50.817 44.2038V26.3988C50.817 26.2057 50.7398 26.0512 50.5853 25.974L35.1749 17.0908C35.0204 17.0135 34.8273 17.0135 34.7115 17.0908L19.3011 25.9741C19.1466 26.0513 19.0693 26.2444 19.0693 26.3989V44.2038C19.0693 44.3583 19.1466 44.5514 19.3011 44.6286L23.511 47.0618C25.7898 48.2204 27.2186 46.8687 27.2186 45.5169V27.9436C27.2186 27.7119 27.4119 27.4802 27.6822 27.4802H29.652C29.8837 27.4802 30.1155 27.6733 30.1155 27.9436V45.5168C30.1155 48.568 28.4546 50.3445 25.5579 50.3445C24.6696 50.3445 23.9745 50.3445 22.0048 49.379L17.9493 47.0618C16.9452 46.4823 16.3273 45.4009 16.3273 44.2423V26.4376C16.3273 25.2789 16.9452 24.1976 17.9493 23.6181L33.3597 14.6964C34.3253 14.1557 35.6384 14.1557 36.6039 14.6964L52.0143 23.6181C53.0184 24.1974 53.6364 25.2788 53.6364 26.4376V44.2424C53.6364 45.4011 53.0184 46.4824 52.0143 47.0618L36.6039 55.9837C36.1018 56.2155 35.5225 56.3312 34.9818 56.3312ZM39.7323 44.088C32.9734 44.088 31.583 40.9983 31.583 38.3719C31.583 38.1402 31.7761 37.9085 32.0465 37.9085H34.0548C34.2865 37.9085 34.4797 38.063 34.4797 38.2947C34.7887 40.3416 35.677 41.3459 39.7709 41.3459C43.0152 41.3459 44.4057 40.6121 44.4057 38.8742C44.4057 37.8699 44.0195 37.1361 38.9599 36.6339C34.7501 36.209 32.1237 35.2821 32.1237 31.9221C32.1237 28.7936 34.7499 26.9398 39.153 26.9398C44.0966 26.9398 46.5299 28.6391 46.8388 32.3468C46.8388 32.4627 46.8002 32.5786 46.723 32.6944C46.6457 32.7716 46.5299 32.8489 46.414 32.8489H44.4057C44.2125 32.8489 44.0195 32.6944 43.9807 32.5013C43.5173 30.3772 42.32 29.682 39.153 29.682C35.5999 29.682 35.1749 30.9178 35.1749 31.8447C35.1749 32.9649 35.677 33.3123 40.4661 33.9303C45.2167 34.5482 47.4568 35.4366 47.4568 38.7582C47.4181 42.1569 44.6374 44.088 39.7323 44.088Z" fill="#539E43"/>
</svg>
