<svg width="50" height="50" viewBox="0 0 78 78" fill="none" xmlns="http://www.w3.org/2000/svg">
<g filter="url(#filter0_d_3_42)">
<rect x="4" width="70" height="70" rx="9" fill="#2BF3E7" fill-opacity="0.15"/>
<path d="M38.5 39.6905C41.1653 39.6905 43.3259 37.5905 43.3259 35C43.3259 32.4095 41.1653 30.3094 38.5 30.3094C35.8348 30.3094 33.6741 32.4095 33.6741 35C33.6741 37.5905 35.8348 39.6905 38.5 39.6905Z" fill="#61DAFB"/>
<path d="M56.8299 27.2648C55.8986 26.9356 54.9249 26.6064 53.9089 26.3184C54.1629 25.3309 54.3746 24.3435 54.5439 23.3971C55.4329 17.966 54.4593 14.1395 51.75 12.6583C50.9457 12.2057 50.0567 12 49.0407 12C46.0775 12 42.3099 14.1395 38.5 17.7191C34.6901 14.1395 30.9225 12 27.9593 12C26.9433 12 26.0543 12.2057 25.25 12.6583C22.5407 14.1807 21.5671 18.0072 22.4561 23.3971C22.6254 24.3435 22.8371 25.3309 23.0911 26.3184C22.0751 26.6064 21.1014 26.8945 20.1701 27.2648C14.8786 29.2397 12 31.9553 12 35C12 38.0447 14.9209 40.7603 20.1701 42.7352C21.1014 43.0644 22.0751 43.3936 23.0911 43.6816C22.8371 44.6691 22.6254 45.6565 22.4561 46.6029C21.5671 52.034 22.5407 55.8605 25.25 57.3417C26.0543 57.7943 26.9433 58 27.9593 58C30.9649 58 34.7324 55.8605 38.5 52.2809C42.3099 55.8605 46.0775 58 49.0407 58C50.0567 58 50.9457 57.7943 51.75 57.3417C54.4593 55.8193 55.4329 51.9928 54.5439 46.6029C54.3746 45.6565 54.1629 44.6691 53.9089 43.6816C54.9249 43.3936 55.8986 43.1055 56.8299 42.7352C62.1214 40.7603 65 38.0447 65 35C65 31.9553 62.1214 29.2397 56.8299 27.2648ZM50.5647 14.7156C52.3003 15.703 52.893 18.7478 52.1733 23.068C52.0463 23.932 51.8347 24.8372 51.5807 25.7835C49.3794 25.2898 47.0511 24.9606 44.5958 24.7549C43.1566 22.78 41.6749 21.0107 40.1933 19.4061C43.3259 16.4025 46.5008 14.3453 49.0831 14.3453C49.6334 14.3453 50.1414 14.4687 50.5647 14.7156ZM45.8235 39.1145C45.0615 40.4311 44.1725 41.7478 43.2412 43.0644C41.6749 43.1878 40.1086 43.229 38.5 43.229C36.849 43.229 35.2827 43.1878 33.7588 43.0644C32.8275 41.7478 31.9808 40.4311 31.2188 39.1145C30.4145 37.7567 29.6526 36.3578 28.9752 35C29.6526 33.6422 30.4145 32.2433 31.2188 30.8855C31.9808 29.5689 32.8698 28.2522 33.8011 26.9356C35.3674 26.8122 36.9337 26.771 38.5423 26.771C40.1933 26.771 41.7596 26.8122 43.2835 26.9356C44.2149 28.2522 45.0615 29.5689 45.8235 30.8855C46.6278 32.2433 47.3898 33.6422 48.0671 35C47.3474 36.3578 46.6278 37.7156 45.8235 39.1145ZM49.3371 37.7567C49.972 39.1968 50.48 40.5957 50.9457 41.9946C49.5064 42.3238 47.9824 42.5707 46.3738 42.7764C46.8818 41.9946 47.4321 41.1717 47.8978 40.3077C48.4058 39.4437 48.8714 38.5796 49.3371 37.7567ZM38.5 48.907C37.484 47.8372 36.5104 46.6852 35.5791 45.492C36.5527 45.5331 37.5264 45.5742 38.5 45.5742C39.4736 45.5742 40.4473 45.5331 41.4209 45.492C40.4896 46.6852 39.516 47.8372 38.5 48.907ZM30.6262 42.7352C29.0176 42.5295 27.4936 42.2826 26.0543 41.9535C26.52 40.5957 27.028 39.1556 27.6629 37.7156C28.1286 38.5385 28.5942 39.4025 29.1022 40.2254C29.6102 41.1306 30.1182 41.9123 30.6262 42.7352ZM27.6629 32.2433C27.028 30.8032 26.52 29.4043 26.0543 28.0054C27.4936 27.6762 29.0176 27.4293 30.6262 27.2236C30.1182 28.0054 29.5679 28.8283 29.1022 29.6923C28.5942 30.5564 28.1286 31.4204 27.6629 32.2433ZM38.5 21.093C39.516 22.1628 40.4896 23.3148 41.4209 24.508C40.4473 24.4669 39.4736 24.4258 38.5 24.4258C37.5264 24.4258 36.5527 24.4669 35.5791 24.508C36.5104 23.3148 37.484 22.1628 38.5 21.093ZM47.8978 29.7335L46.3738 27.2648C47.9824 27.4705 49.5064 27.7174 50.9457 28.0465C50.48 29.4043 49.972 30.8444 49.3371 32.2844C48.8714 31.4204 48.4058 30.5564 47.8978 29.7335ZM24.8267 23.068C24.107 18.7478 24.6997 15.703 26.4353 14.7156C26.8586 14.4687 27.3666 14.3453 27.9169 14.3453C30.4569 14.3453 33.6318 16.3614 36.8067 19.4061C35.3251 20.9696 33.8435 22.78 32.4042 24.7549C29.9489 24.9606 27.6206 25.3309 25.4193 25.7835C25.1653 24.8372 24.996 23.932 24.8267 23.068ZM14.3706 35C14.3706 33.0662 16.7835 31.0089 21.0168 29.4866C21.8634 29.1574 22.7947 28.8694 23.726 28.6225C24.4034 30.6798 25.25 32.8605 26.266 35.0411C25.25 37.2218 24.361 39.3614 23.726 41.4186C17.8842 39.7728 14.3706 37.3041 14.3706 35ZM26.4353 55.2844C24.6997 54.297 24.107 51.2522 24.8267 46.932C24.9537 46.068 25.1653 45.1628 25.4193 44.2165C27.6206 44.7102 29.9489 45.0394 32.4042 45.2451C33.8435 47.22 35.3251 48.9893 36.8067 50.5939C33.6741 53.5975 30.4992 55.6547 27.9169 55.6547C27.3666 55.6547 26.8586 55.5313 26.4353 55.2844ZM52.1733 46.932C52.893 51.2522 52.3003 54.297 50.5647 55.2844C50.1414 55.5313 49.6334 55.6547 49.0831 55.6547C46.5431 55.6547 43.3682 53.6386 40.1933 50.5939C41.6749 49.0304 43.1566 47.22 44.5958 45.2451C47.0511 45.0394 49.3794 44.6691 51.5807 44.2165C51.8347 45.1628 52.004 46.068 52.1733 46.932ZM55.9832 40.5134C55.1366 40.8426 54.2053 41.1306 53.274 41.3775C52.5966 39.3202 51.75 37.1395 50.734 34.9589C51.75 32.7782 52.639 30.6386 53.274 28.5814C59.1158 30.2272 62.6294 32.6959 62.6294 35C62.6294 36.9338 60.1741 38.9911 55.9832 40.5134Z" fill="#61DAFB"/>
</g>
<defs>
<filter id="filter0_d_3_42" x="0" y="0" width="78" height="78" filterUnits="userSpaceOnUse" color-interpolation-filters="sRGB">
<feFlood flood-opacity="0" result="BackgroundImageFix"/>
<feColorMatrix in="SourceAlpha" type="matrix" values="0 0 0 0 0 0 0 0 0 0 0 0 0 0 0 0 0 0 127 0" result="hardAlpha"/>
<feOffset dy="4"/>
<feGaussianBlur stdDeviation="2"/>
<feComposite in2="hardAlpha" operator="out"/>
<feColorMatrix type="matrix" values="0 0 0 0 0 0 0 0 0 0 0 0 0 0 0 0 0 0 0.25 0"/>
<feBlend mode="normal" in2="BackgroundImageFix" result="effect1_dropShadow_3_42"/>
<feBlend mode="normal" in="SourceGraphic" in2="effect1_dropShadow_3_42" result="shape"/>
</filter>
</defs>
</svg>
