<svg width="50" height="50" viewBox="0 0 70 70" fill="none" xmlns="http://www.w3.org/2000/svg">
<path d="M0 9C0 4.02944 4.02944 0 9 0H61C65.9706 0 70 4.02944 70 9V61C70 65.9706 65.9706 70 61 70H9C4.02944 70 0 65.9706 0 61V9Z" fill="white" fill-opacity="0.15"/>
<path d="M34.3991 16.0013C32.7677 16.0057 31.1431 16.2074 29.5625 16.6017C21.9586 18.4467 15.9229 25.1645 15.1491 32.7847C14.1901 39.9923 17.9287 47.503 24.319 51.224C30.5971 55.0566 39.0943 54.9033 45.2384 50.8721C50.7611 47.3735 54.1938 41.0016 53.9915 34.5678C53.8977 28.2042 50.2346 22.0178 44.6291 18.7486C41.5766 16.9096 37.9854 15.9871 34.3991 16.0001V16.0013ZM34.2906 18.688C42.3248 18.6749 50.1956 24.7365 51.0011 32.8358C52.5378 41.8076 44.9021 50.928 35.5848 51.1942C26.7244 52.0549 18.1553 44.7237 17.9019 36.0431C17.2426 29.0162 21.9963 22.038 28.7863 19.7151C30.5369 19.0348 32.405 18.6881 34.2894 18.6939L34.2906 18.688ZM42.5673 23.8033C38.1999 27.1082 34.0177 30.6318 29.7465 34.0376C31.7011 34.0614 33.6692 34.0614 35.6299 34.0483C37.9208 30.6187 40.2763 27.2342 42.5673 23.8033ZM33.3645 35.9326C31.0736 39.3694 28.7132 42.761 26.4198 46.1978C30.8006 42.8977 34.9633 39.3503 39.26 35.9635C37.2945 35.9417 35.3289 35.9318 33.3633 35.9338L33.3645 35.9326Z" fill="white"/>
</svg>
