<svg width="50" height="50" viewBox="0 0 70 70" fill="none" xmlns="http://www.w3.org/2000/svg">
<path d="M0 9C0 4.02944 4.02944 0 9 0H61C65.9706 0 70 4.02944 70 9V61C70 65.9706 65.9706 70 61 70H9C4.02944 70 0 65.9706 0 61V9Z" fill="#38BDF8" fill-opacity="0.15"/>
<g clip-path="url(#clip0_3_44)">
<path d="M35.5017 20.0009C28.1682 20.0009 23.5865 23.6661 21.7517 30.9996C24.5008 27.3339 27.7102 25.9593 31.3758 26.8759C33.4689 27.3975 34.9646 28.9152 36.621 30.5969C39.3169 33.3328 42.4373 36.5 49.2517 36.5C56.5848 36.5 61.1669 32.8343 63.0017 25.4991C60.2517 29.1667 57.0435 30.5419 53.3771 29.625C51.2846 29.1029 49.7905 27.5857 48.1319 25.9039C45.4378 23.1681 42.3183 20.0009 35.5017 20.0009ZM21.7517 36.5C14.4187 36.5 9.83647 40.1657 8.00171 47.5009C10.7514 43.8333 13.9595 42.458 17.6258 43.375C19.7189 43.8971 21.2146 45.4143 22.871 47.0961C25.5669 49.8319 28.6873 52.9991 35.5017 52.9991C42.8348 52.9991 47.4169 49.3339 49.2517 42.0004C46.5017 45.6662 43.2935 47.0408 39.6271 46.1241C37.5346 45.6025 36.0405 44.0848 34.3819 42.403C31.6878 39.6672 28.5683 36.5 21.7517 36.5Z" fill="#38BDF8"/>
</g>
<defs>
<clipPath id="clip0_3_44">
<rect width="55" height="55" fill="white" transform="translate(8 9)"/>
</clipPath>
</defs>
</svg>
