<svg width="50" height="50" viewBox="0 0 70 70" fill="none" xmlns="http://www.w3.org/2000/svg">
<path d="M0 9C0 4.02944 4.02944 0 9 0H61C65.9706 0 70 4.02944 70 9V61C70 65.9706 65.9706 70 61 70H9C4.02944 70 0 65.9706 0 61V9Z" fill="#1F9CF0" fill-opacity="0.15"/>
<g clip-path="url(#clip0_22_46)">
<mask id="mask0_22_46" style="mask-type:luminance" maskUnits="userSpaceOnUse" x="13" y="15" width="41" height="40">
<path d="M41.477 54.7806C41.7965 54.9052 42.1383 54.9627 42.481 54.9495C42.8237 54.9364 43.16 54.8528 43.4691 54.704L51.737 50.7258C52.1628 50.5208 52.5221 50.1997 52.7735 49.7995C53.0249 49.3993 53.1583 48.9363 53.1582 48.4637V21.488C53.1582 21.0154 53.0249 20.5524 52.7734 20.1523C52.522 19.7521 52.1627 19.4311 51.737 19.2261L43.4692 15.2477C43.002 15.0229 42.4766 14.949 41.9655 15.036C41.4544 15.123 40.983 15.3667 40.6165 15.7333L24.7886 30.1735L17.8941 24.9401C17.5831 24.704 17.1993 24.5843 16.8092 24.6016C16.4192 24.619 16.0475 24.7723 15.7587 25.0351L13.5475 27.0466C12.8184 27.7097 12.8176 28.8568 13.5456 29.521L19.5247 34.9759L13.5456 40.4305C12.8176 41.0949 12.8184 42.2418 13.5475 42.9051L15.7587 44.9165C16.0475 45.1793 16.4191 45.3326 16.8092 45.35C17.1993 45.3674 17.5831 45.2477 17.8941 45.0116L24.7886 39.7781L40.6165 54.2182C40.8612 54.4633 41.1542 54.6549 41.477 54.7806M43.1248 25.8595L31.1151 34.9759L43.1248 44.0921V25.8595Z" fill="white"/>
</mask>
<g mask="url(#mask0_22_46)">
<path d="M51.7615 19.2323L43.4872 15.2484C43.0199 15.0234 42.4942 14.9492 41.9829 15.0361C41.4716 15.123 40.9999 15.3667 40.6332 15.7334L13.5459 40.4306C12.8174 41.095 12.8184 42.2419 13.5478 42.9052L15.7604 44.9165C16.0494 45.1794 16.4214 45.3328 16.8116 45.3501C17.2019 45.3675 17.586 45.2478 17.8972 45.0117L50.5165 20.2658C51.6108 19.4358 53.1826 20.2162 53.1826 21.5898V21.4937C53.1826 21.0212 53.0492 20.5584 52.7978 20.1583C52.5464 19.7583 52.1872 19.4373 51.7615 19.2323Z" fill="#0065A9"/>
</g>
<mask id="mask1_22_46" style="mask-type:luminance" maskUnits="userSpaceOnUse" x="13" y="15" width="41" height="40">
<path d="M41.477 54.7806C41.7965 54.9052 42.1383 54.9627 42.481 54.9495C42.8237 54.9364 43.16 54.8528 43.4691 54.704L51.737 50.7258C52.1628 50.5208 52.5221 50.1997 52.7735 49.7995C53.0249 49.3993 53.1583 48.9363 53.1582 48.4637V21.488C53.1582 21.0154 53.0249 20.5524 52.7734 20.1523C52.522 19.7521 52.1627 19.4311 51.737 19.2261L43.4692 15.2477C43.002 15.0229 42.4766 14.949 41.9655 15.036C41.4544 15.123 40.983 15.3667 40.6165 15.7333L24.7886 30.1735L17.8941 24.9401C17.5831 24.704 17.1993 24.5843 16.8092 24.6016C16.4192 24.619 16.0475 24.7723 15.7587 25.0351L13.5475 27.0466C12.8184 27.7097 12.8176 28.8568 13.5456 29.521L19.5247 34.9759L13.5456 40.4305C12.8176 41.0949 12.8184 42.2418 13.5475 42.9051L15.7587 44.9165C16.0475 45.1793 16.4191 45.3326 16.8092 45.35C17.1993 45.3674 17.5831 45.2477 17.8941 45.0116L24.7886 39.7781L40.6165 54.2182C40.8612 54.4633 41.1542 54.6549 41.477 54.7806M43.1248 25.8595L31.1151 34.9759L43.1248 44.0921V25.8595Z" fill="white"/>
</mask>
<g mask="url(#mask1_22_46)">
<path d="M51.7614 50.7191L43.4871 54.7031C43.0197 54.9279 42.4941 55.0021 41.9828 54.9152C41.4715 54.8283 40.9998 54.5847 40.633 54.218L13.5458 29.5209C12.8173 28.8566 12.8182 27.7095 13.5477 27.0464L15.7603 25.0349C16.0493 24.7721 16.4213 24.6187 16.8115 24.6014C17.2018 24.584 17.5859 24.7038 17.8971 24.9399L50.5163 49.6856C51.6107 50.5157 53.1825 49.7352 53.1825 48.3615V48.4577C53.1824 48.9302 53.0491 49.3931 52.7977 49.7931C52.5463 50.1932 52.1871 50.5141 51.7614 50.7191Z" fill="#007ACC"/>
</g>
<mask id="mask2_22_46" style="mask-type:luminance" maskUnits="userSpaceOnUse" x="13" y="15" width="41" height="40">
<path d="M41.477 54.7806C41.7965 54.9052 42.1383 54.9627 42.481 54.9495C42.8237 54.9364 43.16 54.8528 43.4691 54.704L51.737 50.7258C52.1628 50.5208 52.5221 50.1997 52.7735 49.7995C53.0249 49.3993 53.1583 48.9363 53.1582 48.4637V21.488C53.1582 21.0154 53.0249 20.5524 52.7734 20.1523C52.522 19.7521 52.1627 19.4311 51.737 19.2261L43.4692 15.2477C43.002 15.0229 42.4766 14.949 41.9655 15.036C41.4544 15.123 40.983 15.3667 40.6165 15.7333L24.7886 30.1735L17.8941 24.9401C17.5831 24.704 17.1993 24.5843 16.8092 24.6016C16.4192 24.619 16.0475 24.7723 15.7587 25.0351L13.5475 27.0466C12.8184 27.7097 12.8176 28.8568 13.5456 29.521L19.5247 34.9759L13.5456 40.4305C12.8176 41.0949 12.8184 42.2418 13.5475 42.9051L15.7587 44.9165C16.0475 45.1793 16.4191 45.3326 16.8092 45.35C17.1993 45.3674 17.5831 45.2477 17.8941 45.0116L24.7886 39.7781L40.6165 54.2182C40.8612 54.4633 41.1542 54.6549 41.477 54.7806M43.1248 25.8595L31.1151 34.9759L43.1248 44.0921V25.8595Z" fill="white"/>
</mask>
<g mask="url(#mask2_22_46)">
<path d="M43.461 54.7061C42.9936 54.931 42.4679 55.0051 41.9565 54.9181C41.4452 54.8311 40.9735 54.5874 40.6067 54.2206C41.5328 55.1466 43.1166 54.4907 43.1166 53.1808V16.7753C43.1166 15.4654 41.5328 14.8095 40.6067 15.7356C40.9734 15.3688 41.4451 15.125 41.9565 15.038C42.4678 14.951 42.9936 15.0251 43.461 15.2499L51.7339 19.2283C52.1599 19.4332 52.5193 19.7542 52.7709 20.1544C53.0225 20.5545 53.1559 21.0176 53.156 21.4902V48.4661C53.156 49.4307 52.6032 50.3101 51.7339 50.728L43.461 54.7061Z" fill="#1F9CF0"/>
</g>
</g>
<defs>
<clipPath id="clip0_22_46">
<rect width="40.315" height="40" fill="white" transform="translate(13 15)"/>
</clipPath>
</defs>
</svg>
